<svg xmlns="http://www.w3.org/2000/svg" viewBox="0 0 1920 1080"><g><path fill="#c9c2ee" d="M520.51,290.43c-69.63,153.47-53.72,340.46,39.3,461.79,39.54,51.57,91,91.11,145.45,124,162,97.72,361.58,139.08,552.38,83.8,108.25-31.36,218.44-101.29,266.07-212.28,10.38-24.17,17.47-49.55,23.66-75,10-41.17,17.82-83.51,14.22-124.54s-19.89-81-50.6-103.33c-46.76-33.95-113.11-19.91-170.27,1.72S1224.54,496.87,1167,488.53c-83-12-132.76-94.61-191.9-154.39A417.71,417.71,0,0,0,729.32,213.47c-49.87-6.11-103.8-2.68-149.77,25.46S498.72,325,508,377.73" opacity=".67"/><path fill="none" stroke="#b2ace5" stroke-miterlimit="10" stroke-width="2" d="M525.89,165.12C451.79,210.51,402,291.06,387.49,376.73s4.54,175.41,46.32,251.6"/><circle cx="309.84" cy="782.6" r="43.97" fill="#c9c2ee" opacity=".67"/><circle cx="225.41" cy="833" r="20.26" fill="#c9c2ee" opacity=".67"/><circle cx="1296.98" cy="342.37" r="54.84" fill="#c9c2ee"/><circle cx="1187.9" cy="300.43" r="23.22" fill="#c9c2ee"/><circle cx="1241.9" cy="217.43" r="23.22" fill="#c9c2ee"/><circle cx="309.63" cy="426.58" r="33.1" fill="#c9c2ee" opacity=".67"/><ellipse cx="943.79" cy="962.39" fill="#c9c1ed" rx="692.21" ry="29.15"/><path fill="none" stroke="#b2ace5" stroke-miterlimit="10" stroke-width="2" d="M1464,351s200,101,115,377"/></g><g><path fill="#7467ce" d="M680.23,487l0-2.56a42.24,42.24,0,0,1,17.61-34.83,22.22,22.22,0,1,0-35.12-18.09h-10A32.31,32.31,0,0,1,662.93,408a31.94,31.94,0,0,1,24.25-8.59,32.22,32.22,0,0,1,16.45,58.37A32.2,32.2,0,0,0,690.2,484.3l0,2.57Z"/><circle cx="686.69" cy="504.28" r="8" fill="#7467ce"/></g><g><path fill="#7467ce" d="M500.92,410.44l-.28-2.55a42.21,42.21,0,0,1,14.12-36.38A22.22,22.22,0,1,0,478,356.94l-9.95,1A32.35,32.35,0,0,1,476,333.47,32.22,32.22,0,1,1,521.34,379a32.22,32.22,0,0,0-10.76,27.76l.28,2.55Z"/><circle cx="509.04" cy="427.02" r="8" fill="#7467ce"/></g><g><path fill="#7467ce" d="M365.43,567.79l-1.53-2.06a42.23,42.23,0,0,1-6.18-38.53,22.22,22.22,0,1,0-39.05,6l-8.1,5.87A32.31,32.31,0,0,1,305,514a32,32,0,0,1,14.6-21.19,32.22,32.22,0,0,1,47.57,37.61,32.22,32.22,0,0,0,4.72,29.4l1.53,2.06Z"/><circle cx="380.81" cy="578.01" r="8" fill="#7467ce" transform="rotate(-38.12 380.817 578.008)"/></g><g><path fill="#b2ace5" d="M1312.31,944.49c52.12,15.81,108.83,14.09,161.12-1.14s138-69.6,179.24-137.88c-146.21-51.11-275.74,25.53-331.94,88.13"/><path fill="none" stroke="#d5e2f1" stroke-linejoin="round" stroke-width="1.5" d="M1652.67,805.47S1521,946.4,1319.91,931.75"/><path fill="none" stroke="#d5e2f1" stroke-linejoin="round" stroke-width="1.5" d="M1652.67,805.47S1483.57,894,1318.75,906.38"/><path fill="none" stroke="#d5e2f1" stroke-linejoin="round" stroke-width="1.5" d="M1652.67,805.47s-190.77,8.89-342.37,100"/></g><g><path fill="#b2ace5" d="M768.16,953.66c-47.78,18.8-101.21,21.47-151.51,11.11s-135-55-178.88-116c133.55-59.09,261.09,3.15,318.64,57.73"/><path fill="none" stroke="#d5e2f1" stroke-linejoin="round" stroke-width="1.5" d="M437.77,848.74s134.46,122.49,322.29,93.52"/><path fill="none" stroke="#d5e2f1" stroke-linejoin="round" stroke-width="1.5" d="M437.77,848.74s165.62,70.41,321.47,69.59"/><path fill="none" stroke="#d5e2f1" stroke-linejoin="round" stroke-width="1.5" d="M437.77,848.74s180-6.07,329.34,68.1"/></g><g><path fill="#f6f3ff" d="M743.37,861.8c4.34-32.47,15.93-66.33-3.46-96.36-10.72-16.6-31.95-19.56-49.15-25.76-29.43-10.61-46.92-33.36-52.31-63.93-2.15-12.23-7.48-25.1-18.53-30.74-16.46-8.4-37.36,2.83-54.59-3.82-9.25-3.58-15.87-11.63-23.28-18.24-17.91-16-44.2-19.44-44.2-19.44a81.75,81.75,0,0,1-.12,41.93c-4,14.29-6.39,29.77-4,44.67,1.87,11.64,7.7,20.27,16.48,27.79,10.34,8.85,18.15,16.29,22.55,29.31,6.79,20.08-8.48,70.57,18.78,75.47C559,824,567,822,573.93,825.47c12.62,6.33,6.44,22.44,9.76,33.26,5.12,16.63,16.61,34.69,31.41,41.54,35.3,16.35,83.65,14.49,121.65,4"/><path fill="none" stroke="#dbd7f4" stroke-miterlimit="10" stroke-width="2" d="M498.37,605.51C554.27,658.88,576,741,633.17,793c17.16,15.6,37,27.94,55,42.61s34.48,32.43,41.74,54.45"/><path fill="none" stroke="#dbd7f4" stroke-miterlimit="10" stroke-width="2" d="M604.63,641.11c3.22,28.46,3.11,71.78-4,114.94,0,0-52-9.37-71.88-17.81"/><path fill="none" stroke="#dbd7f4" stroke-miterlimit="10" stroke-width="2" d="M587.38,642.42c2.51,31.32,1.06,57.68.11,94.29"/><path fill="none" stroke="#dbd7f4" stroke-miterlimit="10" stroke-width="2" d="M560.91,638.47s1.15,26.66-1.63,51"/><path fill="none" stroke="#dbd7f4" stroke-miterlimit="10" stroke-width="2" d="M527.15,613c.36.18,1.38,8.52,1.34,27.73"/><path fill="none" stroke="#dbd7f4" stroke-miterlimit="10" stroke-width="2" d="M553,678.8c.12.2-36.83-11.69-57.92-21.16"/><path fill="none" stroke="#dbd7f4" stroke-miterlimit="10" stroke-width="2" d="M582.88,729.4c-.11-.18-58.47-11.31-83-23"/><path fill="none" stroke="#dbd7f4" stroke-miterlimit="10" stroke-width="2" d="M647.76,703.33c.51.95,4.5,54.6-3.73,98.91"/><path fill="none" stroke="#dbd7f4" stroke-miterlimit="10" stroke-width="2" d="M629.08,789.17s-62.32-4.1-94.21-12"/><path fill="none" stroke="#dbd7f4" stroke-miterlimit="10" stroke-width="2" d="M575.9,833c38.43,5.41,114.59,4.59,114.59,4.59s8-69.41.27-97.91"/><path fill="none" stroke="#dbd7f4" stroke-miterlimit="10" stroke-width="2" d="M717.88,866.59s-86.17,4.36-131.35-.07"/><path fill="none" stroke="#dbd7f4" stroke-miterlimit="10" stroke-width="2" d="M707.93,744.38s8,55.61-6.6,103"/><path fill="none" stroke="#dbd7f4" stroke-miterlimit="10" stroke-width="2" d="M724.87,877.9S657,895.45,597.13,885"/></g><g><path fill="#f6f3ff" d="M1278.57,859c-7.35-34-22.48-68.77-4.54-102.16,9.92-18.46,32.12-23.39,49.77-31.41,30.21-13.73,46.77-39.27,49.86-72,1.24-13.1,5.77-27.17,17-34.08,16.68-10.27,39.73-.17,57.38-8.67,9.48-4.57,15.79-13.65,23.06-21.26,17.58-18.4,45.08-24.31,45.08-24.31a86.67,86.67,0,0,0,3.69,44.31c5.42,14.77,9.28,30.93,8,46.89-1,12.46-6.42,22.08-15.06,30.77-10.18,10.24-17.8,18.78-21.35,32.9-5.47,21.81,15,73.89-13.43,81.39-7.73,2-16.35.57-23.42,4.85-12.81,7.77-4.9,24.28-7.5,36-4,18-14.6,38.08-29.66,46.58-35.93,20.29-87.2,22.43-128.27,14.59"/><path fill="none" stroke="#dbd7f4" stroke-miterlimit="10" stroke-width="2" d="M1515.78,567.19c-54.55,61.18-70.53,149.88-126.56,209.69-16.82,17.94-36.73,32.68-54.46,49.72s-33.7,37.21-39.51,61.1"/><path fill="none" stroke="#dbd7f4" stroke-miterlimit="10" stroke-width="2" d="M1406.47,613.86c-1,30.37,2.82,76.15,14,121.17,0,0,54.13-14.32,74.47-24.94"/><path fill="none" stroke="#dbd7f4" stroke-miterlimit="10" stroke-width="2" d="M1424.82,613.78c0,33.33,3.78,61.07,7.91,99.7"/><path fill="none" stroke="#dbd7f4" stroke-miterlimit="10" stroke-width="2" d="M1452.47,607.36s1,28.28,6.06,53.74"/><path fill="none" stroke="#dbd7f4" stroke-miterlimit="10" stroke-width="2" d="M1486,577.51c-.37.23-.74,9.14.94,29.44"/><path fill="none" stroke="#dbd7f4" stroke-miterlimit="10" stroke-width="2" d="M1464.24,649.32c-.11.22,37.94-15.49,59.43-27.29"/><path fill="none" stroke="#dbd7f4" stroke-miterlimit="10" stroke-width="2" d="M1437,705.35c.1-.2,60.84-16.93,85.74-31.37"/><path fill="none" stroke="#dbd7f4" stroke-miterlimit="10" stroke-width="2" d="M1366.17,683.31c-.46,1.05-.12,58.11,12.36,104.25"/><path fill="none" stroke="#dbd7f4" stroke-miterlimit="10" stroke-width="2" d="M1393.22,772.47s65.53-9.64,98.57-20.71"/><path fill="none" stroke="#dbd7f4" stroke-miterlimit="10" stroke-width="2" d="M1453.16,814.28c-40.16,9-120.75,14.6-120.75,14.6s-14.32-72.7-8.61-103.48"/><path fill="none" stroke="#dbd7f4" stroke-miterlimit="10" stroke-width="2" d="M1305.92,861.86s91.47-2.71,138.86-11.23"/><path fill="none" stroke="#dbd7f4" stroke-miterlimit="10" stroke-width="2" d="M1306.05,731.82s-3.75,59.48,15.73,108.31"/><path fill="none" stroke="#dbd7f4" stroke-miterlimit="10" stroke-width="2" d="M1299.5,874.41s73.22,12.79,135.64-3.37"/></g><g><path fill="#625bc1" d="M949.65,555.13,930.55,539c-23.57-23.57-49-16.32-49-16.32H787.31c-16.32,3.63-15.73,20.78-15.73,20.78L756.44,929.92c-.87,19.64,9.73,32.39,26.87,32.33l565.62-2.15c6.9,0,14.82-9,14.77-16.7L1361.58,584c-.08-14.28-8.23-23.35-20.95-23.35L960,558.88h0A15.83,15.83,0,0,1,949.65,555.13Z"/></g><g><rect width="327" height="446" x="952.48" y="392.18" fill="#f9b52b" rx="33.21" transform="rotate(25.8 1115.875 615.094)"/></g><g><rect width="327" height="446" x="885" y="368" fill="#fff" rx="16.48" transform="rotate(8.75 1048.893 591.247)"/><line x1="1013.15" x2="1112.11" y1="455.6" y2="581.93" fill="none" stroke="#38387a" stroke-miterlimit="10" stroke-width="11"/><line x1="998.42" x2="1130.07" y1="564.7" y2="472.94" fill="none" stroke="#38387a" stroke-miterlimit="10" stroke-width="11"/></g><g><path fill="#7467ce" d="M1362.08,947.44,1222.6,665.19a33.28,33.28,0,0,0-29.91-18.34H800.6L768.22,620a61.42,61.42,0,0,0-35.49-11.24H636.38c-13.69,0-23,13.62-17.64,25.94L748.8,936.85a42.49,42.49,0,0,0,39.26,25.4l565.62-1.69A9.15,9.15,0,0,0,1362.08,947.44Z"/><line x1="1211.58" x2="1347.57" y1="669.51" y2="946.92" fill="none" stroke="#292966" stroke-miterlimit="10"/><polygon fill="#fff" points="846.24 710.74 688.7 710.74 685.34 703.82 842.88 703.82 846.24 710.74"/><polygon fill="#fff" points="758.07 691.35 679.29 691.35 675.94 684.43 754.71 684.43 758.07 691.35"/><polygon fill="#fff" points="855.64 730.13 698.1 730.13 694.74 723.21 852.28 723.21 855.64 730.13"/><polygon fill="#fff" points="895.84 749.52 707.5 749.52 704.14 742.6 892.48 742.6 895.84 749.52"/></g><g><circle cx="1155.96" cy="719.81" r="107.53" fill="#fff" opacity=".19" transform="rotate(-45 1155.954 719.808)"/><path fill="#38387a" d="M1268.38,703.82a112.77,112.77,0,1,1-128.72-94.16A112.9,112.9,0,0,1,1268.38,703.82Zm-208.06,32.26A97.77,97.77,0,1,0,1142,624.48,97.89,97.89,0,0,0,1060.32,736.08Z"/><path fill="#fff" d="M1146.88,796.53a5.43,5.43,0,0,1,0,1.66,5.51,5.51,0,0,1-6.26,4.62,81.66,81.66,0,0,1-31.75-11.87,5.5,5.5,0,1,1,5.88-9.29,70.91,70.91,0,0,0,27.51,10.28A5.5,5.5,0,0,1,1146.88,796.53Z"/><path fill="#fff" d="M1104.5,775.34a5.51,5.51,0,0,1-9.29,4.78,82.43,82.43,0,0,1-16.83-93.81,5.5,5.5,0,0,1,10,4.69,71.37,71.37,0,0,0,14.58,81.26A5.52,5.52,0,0,1,1104.5,775.34Z"/><path fill="#38387a" d="M1372,816.39a6.41,6.41,0,0,1-.6,3.87,6.49,6.49,0,0,1-8.71,2.94l-112.76-55.85a6.5,6.5,0,0,1,5.77-11.65l112.76,55.85A6.5,6.5,0,0,1,1372,816.39Z"/><path fill="#38387a" d="M1357.22,765.07h34a0,0,0,0,1,0,0v91a17,17,0,0,1-17,17h0a17,17,0,0,1-17-17v-91a0,0,0,0,1,0,0Z" transform="rotate(-65.68 1374.254 819.066)"/></g><g><path fill="#af622e" d="M508.54,642.44c1.21,4.3,3.76,8.37,3.62,12.84-.3,9.24-10.91,13.83-19.19,17.94A73.34,73.34,0,0,0,478.08,683c-7.16,6.08-13.37,14.14-14.22,23.49-1.05,11.59,6.34,22.36,15.05,30.08,2,1.78,4.16,3.53,5.39,5.91,2.38,4.61.64,10.42-2.55,14.53s-7.61,7-11.48,10.49c-8.62,7.74-14.64,19-14.07,30.53S465,821,476.35,823.26c6.31,1.26,12.82-.23,19-1.89q10.77-2.89,21.32-6.51c18.25-6.26,37.69-14.24,56.16-8.69,8.29,2.5,15.65,7.59,24,9.84,18.63,5,37.72-4.92,54.15-15,7.46-4.58,15-9.44,20.21-16.51,11.27-15.39,7.72-38.47-5.11-52.58-7.92-8.72-19.43-15.78-21.24-27.41-1.19-7.73,2.39-15.28,4.4-22.84,3.22-12.16.84-27.68-10.51-33.11-4.07-1.95-8.86-2.35-12.55-4.94-7-4.89-7.12-14.9-9.53-23.08-8.68-29.45-42-32.37-67-25.5C530.92,600.19,502.2,619.8,508.54,642.44Z"/><path fill="none" stroke="#6d3c1b" stroke-miterlimit="10" d="M522.09,618.5c-3.64,5-8.24,7-6,21.83.91,6.12,4.78,23.13,3.15,29.09-2.8,10.3-15.57,13.2-25.17,17.85C488.4,690,483.2,694,480.23,699.56s-3.37,12.66,0,17.93c3.82,6,11.57,8.7,14.76,15,3.83,7.55-.47,16.6-5.29,23.56s-10.55,14.48-9.56,22.89"/><path fill="none" stroke="#6d3c1b" stroke-miterlimit="10" d="M506.54,693.18a17.55,17.55,0,0,0-3,32.77"/><path fill="none" stroke="#6d3c1b" stroke-miterlimit="10" d="M594.8,603.75c6.61.6,11.37,7,13,13.37s1.14,13.21,2,19.78,3.75,13.56,9.73,16.44c3.13,1.51,6.79,1.74,9.8,3.47,5.42,3.12,7.17,10.19,6.83,16.43s-2.21,12.39-1.85,18.62c1,16.3,16.12,27.49,25.14,41.1a60.09,60.09,0,0,1,7.11,50.54"/><path fill="none" stroke="#6d3c1b" stroke-miterlimit="10" d="M594.38,622.6a66.16,66.16,0,0,0,.83,21.15c1,5,2.7,10,6.08,13.84,5.55,6.27,15.16,8.76,18.72,16.33,2.81,6,.81,13-.61,19.39s-1.82,14.17,3,18.62"/><path fill="none" stroke="#6d3c1b" stroke-miterlimit="10" d="M592.45,667.05c11.16,9.24,15.21,26.12,9.45,39.42"/></g><g><path fill="#f9b52b" d="M520.39,673.12c-22.3,4-38.14,31.66-41.89,39.06-11.9,23.47-22.73,38-34.32,60.88-.33.64,1.71,18.36,10.32,25.08,14.49,11.32,30.09,2.08,34.72.71s56.71-73.44,58.39-81.48c.83-4,2.68-18.88-3-29.12C537.88,676.28,523,671.16,520.39,673.12Z"/></g><g><path fill="#f9b52b" d="M563.34,703.94l-11.53-4.28s-5.18-3.52-4.18-8-17.34-20.07-17.34-20.07-21.94,1.32-23.94,10.26S485.24,761,487.23,768.72c3.18,12.31,7.3,25.41,10.38,35,1.5,4.67,3,22.06,3.61,24.7,2.63,11.77-4.83,24.24-.81,34.56,2.09,5.37,64.16,16,89.46,10.77s42-14.45,39.71-21.52c-3.54-10.92-13.51-42.34-14.86-51.91s32.77-70.25,35.84-79.06,1.52-36.87-10.72-42.7c-17.21-11.33-59.32-9.63-59.32-9.63Z"/><path fill="none" stroke="#9f6e1f" stroke-miterlimit="10" stroke-width="1.6" d="M503.07,712.2c-6.61,11.76-17.89,46-15.84,56.52a148.35,148.35,0,0,0,10.32,33.22c-1.84-9.29,3.17-10.45,5.52,34.06-4.13,11.91-8.33,23-1.72,27.79"/><path fill="#e19b37" d="M528.22,871.4c-1.57-.49-26.72-5.73-30.35-10.46-3.77-7.91,4.56-28.34,4.56-28.34s68.21,10.61,82-14.14c3.17-5.7-6.56-58.33-2.94-63.87,12.66-19.38,43.63-35.3,49.68-7.79L617,807.66l8.41,30.73s5.15,9.25,4.39,15.67c-.64,5.43-7,8.13-8.89,9.23-1.33.78-20.27,7.66-21.76,8.5-6.12,3.48-23.81,2-27.14,2.82Z"/><path fill="#ffbfac" d="M587.36,668c34.78,2.21,28,4.16,28,4.16s-5,27.86-44.73,30.6c-23.88.59-30.54-12.88-34.06-15.39s-6.44-14.23-6.44-14.23l23.57-3.91Z"/></g><g><path fill="#f9b52b" d="M643.85,677.81c13.45,3.65,32.71,37.25,40.85,47.59,13.58,17.26,48.5,52.09,20.32,71.42-22.55,15.47-40.18-5.86-54-20.67-13.28-14.24-33.22-32-38.9-51.29C606.1,704.39,612.76,669.73,643.85,677.81Z"/></g><g><path fill="#ffbfac" d="M620.15,774.63a10.41,10.41,0,0,1,6.77,10c-.14,9.21-3.67,26.48-29.43,18.55a19.47,19.47,0,0,0-15.9,2.65s-9.14,16-16.81,11.91a1.24,1.24,0,0,1,.09-2.16,11.09,11.09,0,0,0,6.12-9.75s-7.94,13.25-15.89,10.6c0,0-2.65,0,2.65-5.3l5.3-7.95s-10.6,13.25-15.9,7.95c0,0,8-7.95,8-10.6,0,0-10.6,13.25-18.55,8a123.9,123.9,0,0,0,13.25-15.9s5.3-8,13.25-10.6C563.05,782,602.54,768.18,620.15,774.63Z"/><path fill="none" stroke="#45154f" stroke-miterlimit="10" stroke-width=".5" d="M571,795.94s-4.72,1.95-8.87,8.66l-2.83,4.25"/><path fill="none" stroke="#45154f" stroke-miterlimit="10" stroke-width=".5" d="M562.7,792.39s-5.32,4.14-7.69,8.28l-3.62,5.86"/><path fill="none" stroke="#45154f" stroke-miterlimit="10" stroke-width=".5" d="M575.71,799.49a19,19,0,0,0-5.13,9.36"/></g><g><path fill="#f9b52b" d="M712.23,792.27s16.19-11.79-2.55-35.1c-12.13-15.11-34-3.65-34-3.65l-72.32,18.16-.22,35S698.55,813,712.23,792.27Z"/><path fill="none" stroke="#9f6e1f" stroke-miterlimit="10" stroke-width="1.6" d="M716.28,772.84c17.39,47.6-113.22,34.23-113.22,34.23l-1.65-35.71,74.29-16.9"/></g><g><polygon fill="#7bbdff" points="624.59 832.37 659.76 869.01 564.98 905.16 480.46 866.57 498.53 834.32 624.59 832.37"/><path fill="#fff" d="M628.92,840.53q-26.05,1.54-52.14,2t-52.19-.25q-14.62-.37-29.26-1.11c-.64,0-.64,1,0,1q26.06,1.3,52.16,1.5t52.17-.74q14.64-.52,29.26-1.39c.63,0,.64-1,0-1Z"/><path fill="#fff" d="M564.41,847.11l1.71,27c0,.64,1,.64,1,0l-1.71-27c0-.64-1-.64-1,0Z"/></g><g><rect width="212.48" height="10.65" x="462.8" y="853.16" fill="#38387a" transform="rotate(-180 569.045 858.485)"/><path fill="#5250aa" fill-rule="evenodd" d="M470.6,855.82h126a12.39,12.39,0,0,0,11.6-16.76l-35.14-93a12.39,12.39,0,0,0-11.59-8H435.46a12.39,12.39,0,0,0-11.59,16.77l35.13,93A12.41,12.41,0,0,0,470.6,855.82Z"/><ellipse cx="514.37" cy="800.78" fill="#7f7fc6" rx="10.83" ry="14.38" transform="rotate(-49.6 514.351 800.76)"/><path fill="#ffbfac" d="M432.46,800.59c.35-7.19.21-4.12,1.18-11.24.28-2.08,5.11-3.67,6.58-5.17a9.74,9.74,0,0,1,4.41-2.17,80.17,80.17,0,0,1,22.93-3,3.37,3.37,0,0,1,2.12.53,2.24,2.24,0,0,1,.09,3,6.57,6.57,0,0,1-2.8,1.75l-12.11,4.91a84.24,84.24,0,0,1,16.8.31c1.47.18,3.1.5,3.94,1.71a2.67,2.67,0,0,1-.17,3.18,2.71,2.71,0,0,1-3.15.59c1.21.29,2,.7,2.24,1.9a2.23,2.23,0,0,1-1.15,2.28,6.73,6.73,0,0,1-2.64.72c1-.4,1.63,1.66,1.19,2.65a4.14,4.14,0,0,1-2.62,1.81,165.1,165.1,0,0,1-21.9,5.84c-.54,3.08-2.72,6.58-.63,8.89,5.2,5.75.47,13.44-8.78-.67C436.58,816.24,432.33,803.13,432.46,800.59Z"/><path fill="none" stroke="#aa5233" stroke-miterlimit="10" d="M452.42,795l19-.66"/><path fill="none" stroke="#aa5233" stroke-miterlimit="10" d="M452.26,801.73l16.82-1.37"/></g><g><path fill="#ffbfac" d="M621.66,915.08,645.85,921s12.28,7.11,6.3,17.82c-4.86,8.7-17.23,12.4-27.95,8.78l-9.6-3.24Z"/><path fill="#7bbdff" d="M378.2,850.29c5.92-11.83,21.23-18.94,37.24-17.1,69,8,214.78,76.64,214.78,76.64,7.52,21.39-12.3,43.89-12.3,43.89-113.53-9.49-173.58-24.4-208.85-38.77C379.3,902.82,366,874.61,378.2,850.29Z"/><path fill="none" stroke="#1e2d51" stroke-miterlimit="10" d="M628.66,911.26s-99.46-55.13-195.87-73.82"/><path fill="#fff" d="M514.59,927.19l-32.37-11.25c-9.73-3.37-19.48-6.69-29.15-10.19-8.62-3.12-17.17-6.43-25.5-10.25a164.83,164.83,0,0,1-23.82-13.15,105.51,105.51,0,0,1-20.21-17.51c-.75-.84-1.48-1.7-2.2-2.56-.4-.5-1.1.21-.7.7a104,104,0,0,0,19.69,18.2,154,154,0,0,0,23.55,13.69c8.28,4,16.8,7.37,25.4,10.55,9.45,3.49,19,6.73,28.51,10l32.5,11.28,4,1.4c.6.21.86-.74.26-.95Z"/></g><g><path fill="#515a8d" d="M634.06,925.93q31.25,2.91,62.55,3.08c3.94,0,7.92,0,11.76,1.32s8.71,4.11,11,8.67c2.45,4.91,4.39,11.23,4.12,17.15-.28,6.19-4,12.59-7,17.11A14.76,14.76,0,0,1,703.65,980c-4.75-.09-9.4-2-14-4q-29.06-12.39-57.62-27A111,111,0,0,0,634.06,925.93Z"/></g><g><path fill="#515a8d" d="M528.33,932.62Q490,942.39,451,948.74c-4.89.79-9.85,1.57-14.38,4A21.65,21.65,0,0,0,426,965.43c-2.09,6.6-5.14,15.15-3.64,22.47,1.57,7.66,7.91,14.83,12.51,19.88a18.61,18.61,0,0,0,17.35,5.85c5.9-1,11.31-4.35,16.62-7.67q33.75-21.15,66.48-44.93A140.54,140.54,0,0,1,528.33,932.62Z"/><path fill="#ffbfac" d="M526.8,933,508,940.75s-9.06,7.87-3,17.6a17.87,17.87,0,0,0,23.57,6l7.36-3.94Z"/></g><g><path fill="#7bbdff" d="M724.34,837.83c-7.27-10.78-22.05-15.55-35.92-11.38C628.7,844.38,511.36,933.37,511.36,933.37c-3,22.17,18.43,41.43,18.43,41.43,98.93-26,149.55-49.44,178.31-68.76C732.39,889.74,739.31,860,724.34,837.83Z"/><path fill="none" stroke="#1e2d51" stroke-miterlimit="10" d="M675.5,829.5s-81,39.1-153.33,97.11"/><path fill="#fff" d="M724.31,875.34l-39.7,16.81L644.92,909l-39.7,16.81-39.69,16.81-39.7,16.81L521,961.45c-.58.25-.08,1.1.5.86l39.7-16.81,39.69-16.81,39.7-16.81,39.7-16.81,39.69-16.81,4.87-2.06c.59-.25.08-1.1-.5-.86Z"/></g><g><path fill="#ffbfac" d="M586.75,633.05l4,56.16L547,700.48l6.5-50.86s.53-8.35,5.28-12C565.25,632.7,585.22,624,586.75,633.05Z"/><path fill="#de8469" d="M550.63,675.55s19-8.29,29.31-20.2c4.7-5.44,9.72-22.09,9.72-22.09L553,652.89Z"/></g><g><path fill="#48a4f7" d="M534.68,586.86c3.05-5.86,8.88-10.6,15.66-13.48a40.86,40.86,0,0,1,21.45-2.87c7.19,1,13.88,4.26,18.33,9.07a29.92,29.92,0,0,1,6.52,12,42.66,42.66,0,0,1,.51,22,27.4,27.4,0,0,1-3.67,8.87,31.76,31.76,0,0,1-6.94,7.16c-5.54,4.37-12.56,7.94-20,7.83a29.33,29.33,0,0,1-11-2.55,36,36,0,0,1-20-20.54C532.61,606.32,530.46,595,534.68,586.86Z"/><path fill="#ffbfac" d="M532.18,623.73c-.29,22.28,4,37.89,26.42,37.19,16.25-.5,30.34-12.39,33.16-34.52,2.88-22.59-9.08-40-25.25-41.51C540.33,582.5,532.5,598.8,532.18,623.73Z"/><path fill="#af622e" d="M585.75,621.58a38.22,38.22,0,0,1-8.58-25.67,66.68,66.68,0,0,1-32.34,1c-9.84-2.37-19-9.64-21.19-19.52,2,4.78,8.46,6,13.47,4.67s9.32-4.59,14.2-6.38c9.06-3.32,19.69-1.24,27.38,4.58s12.5,15,13.75,24.63A17.51,17.51,0,0,1,585.75,621.58Z"/><path fill="#48a4f7" d="M534.79,571.57a56.41,56.41,0,0,1,11-4.6c1.42,2.49,2.76,5,4,7.57q-.11-4.21-.22-8.43a1,1,0,0,1,.36-1,2.16,2.16,0,0,1,.7-.26,34.33,34.33,0,0,1,10.2-.82,45.79,45.79,0,0,1-4,9.25c-3.45.87-8.57,3.25-12,2.83C543.53,576,534.9,571.5,534.79,571.57Z"/><path fill="#7c3d33" d="M566.43,608.3a13,13,0,0,1,4.13,5,3.35,3.35,0,0,0-.09-2.7,8.21,8.21,0,0,0-3.71-4.36c-1.71-.89-5.35-1.35-6.51.66.73.54,1.91.1,2.8.17A7.23,7.23,0,0,1,566.43,608.3Z"/><path fill="#7c3d33" d="M541.59,606.18a5.46,5.46,0,0,1,5.3,1.51,5.39,5.39,0,0,0-4.52-3.43c-1.68-.16-6.18,1.18-6.13,3.53C536.27,609.64,540.42,606.44,541.59,606.18Z"/><path fill="none" stroke="#d17254" stroke-miterlimit="10" stroke-width="2" d="M550.74,617a6.07,6.07,0,0,1-2.52,5.33,15,15,0,0,1-5.63,2.42,6.47,6.47,0,0,0,7.5,7.41"/><path fill="#ffbfac" d="M588.72,616.88a11.14,11.14,0,0,1,8.49-6.22c3.17-.46,6.68.55,8.51,2.93s1.76,5.52,1,8.34a11.69,11.69,0,0,1-3.34,5.89,11.35,11.35,0,0,1-6.53,2.61,13.86,13.86,0,0,1-11.73-4.7"/><path fill="none" stroke="#db8e5b" stroke-miterlimit="10" d="M600.05,616.06c-3.81-.24-7.66,2.22-8.74,5.58l1.42-.84a7.63,7.63,0,0,1,3.76-1.39c1.36,0,2.79,1.06,2.53,2.29"/></g><g><path fill="#fff" d="M559.06,635.26s-11,7-15.76,4.79c0,0,2.8,7.1,6.42,6.91C557.35,646.54,559.06,635.26,559.06,635.26Z"/></g><g><path fill="#3d2e2c" d="M559.85,616.76c-.46,1.88.34,3.65,1.8,4s3-1,3.46-2.83-.34-3.65-1.8-4S560.31,614.89,559.85,616.76Z"/></g><g><path fill="#3d2e2c" d="M537.8,614.4c-.33,2,.53,3.78,1.92,4s2.79-1.32,3.13-3.33-.53-3.78-1.92-3.95S538.13,612.39,537.8,614.4Z"/></g></svg>